<?xml version="1.0" encoding="utf-8"?>
<svg viewBox="5.378 10.086 482.585 194.995" xmlns="http://www.w3.org/2000/svg">
  <g transform="matrix(1.3333, 0, 0, -1.3333, -117.196236, 444.59613)">
    <g clip-path="url(#clipPath36)">
      <g transform="translate(197.23 229.44)">
        <path d="m0 0c5.783 8.94 9.154 19.589 9.154 31.029 0 31.604-25.621 57.225-57.226 57.225-31.604 0-57.225-25.621-57.225-57.225 0-11.44 3.371-22.089 9.154-31.029z" fill="#f2ebdd" />
      </g>
      <g transform="translate(149.16 242.66)">
        <path d="m0 0c-12.662 0-22.928 10.265-22.928 22.928 0 12.662 10.266 22.927 22.928 22.927 12.663 0 22.928-10.265 22.928-22.927 0-12.663-10.265-22.928-22.928-22.928m0 54.95c-17.686 0-32.022-14.337-32.022-32.022 0-17.687 14.336-32.024 32.022-32.024 17.687 0 32.023 14.337 32.023 32.024 0 17.685-14.336 32.022-32.023 32.022" fill="#083555" />
      </g>
      <g transform="translate(174.34 266.06)">
        <path d="m0 0c-9.779 0-13.094-16.166-25.184-16.412-12.089 0.246-15.403 16.412-25.182 16.412-9.855 0-16.424-16.697-30.384-19.708l6.021-26.005 6.571 3.285 5.2-41.333h75.55l5.2 41.333 6.569-3.285 6.023 26.005c-13.961 3.011-20.53 19.708-30.384 19.708" fill="#5bc6c9" />
      </g>
      <g transform="translate(126.39 256.02)">
        <path d="m0 0c0-2.224-1.803-4.026-4.027-4.026-2.223 0-4.026 1.802-4.026 4.026 0 2.225 1.803 4.026 4.026 4.026 2.224 0 4.027-1.801 4.027-4.026" fill="#083555" />
      </g>
      <g transform="translate(179.97 256.02)">
        <path d="m0 0c0-2.224-1.803-4.026-4.027-4.026-2.223 0-4.026 1.802-4.026 4.026 0 2.225 1.803 4.026 4.026 4.026 2.224 0 4.027-1.801 4.027-4.026" fill="#083555" />
      </g>
    </g>
    <text transform="matrix(1 0 0 -1 228.85 245.02)" fill="#083555" font-family="Poppins" font-size="44.148px" font-weight="bold" style="white-space: pre;">
      <tspan x="0" y="0">e-Com</tspan>
    </text>
    <text transform="matrix(1 0 0 -1 234.79 221.72)" fill="#ac8746" font-family="Poppins" font-size="14.78px" font-weight="bold" style="white-space: pre;">
      <tspan x="0" y="0">ABDELLAH IJOUIRI</tspan>
    </text>
  </g>
</svg>
